<svg width="156" height="23" viewBox="0 0 156 23" fill="none" xmlns="http://www.w3.org/2000/svg">
<g id="Group 77 Copy">
<path id="Fill 1" fill-rule="evenodd" clip-rule="evenodd" d="M33.0182 17.7714L29.9665 5.74268H34.2267L36.07 14.7999H36.1306L39.4243 6.08555H41.0256C41.4888 6.08555 41.8611 6.18092 42.1436 6.37137C42.4255 6.56212 42.647 6.85686 42.8085 7.25707L45.6186 14.7999H45.6789L47.4923 5.74268H51.7525L48.7611 17.7714C48.3985 19.2569 47.5322 20 46.1625 20H44.2891L40.9348 10.9713L37.4601 20H35.6169C34.2673 20 33.4006 19.2569 33.0182 17.7714Z" fill="#241F4A"/>
<path id="Fill 3" fill-rule="evenodd" clip-rule="evenodd" d="M60.5154 17.2571C61.2604 17.2571 61.925 17.0765 62.5098 16.7143C63.0939 16.3527 63.5169 15.8669 63.7789 15.2572V14.7712C63.4566 14.543 63.0085 14.362 62.4341 14.2283C61.86 14.0955 61.2507 14.0287 60.6062 14.0287H58.7024C58.2191 14.0287 57.8263 14.1428 57.524 14.3715C57.2217 14.5997 57.0706 14.9049 57.0706 15.2855V16.0285C57.0706 16.3904 57.2371 16.6855 57.5693 16.9142C57.9017 17.143 58.3397 17.2571 58.8837 17.2571H60.5154ZM54.5326 19.1141C53.5654 18.3713 53.0822 17.3905 53.0822 16.1715V15.114C53.0822 13.9143 53.5855 12.9478 54.5929 12.2142C55.6 11.4812 56.9295 11.1143 58.5817 11.1143H60.4249C60.9484 11.1143 61.5128 11.1811 62.1167 11.3142C62.7213 11.4476 63.2752 11.6286 63.7789 11.8571V10.3715C63.7789 9.8955 63.6127 9.50955 63.2806 9.21422C62.9478 8.91889 62.5098 8.77122 61.9659 8.77122H59.3673C58.8029 8.77122 58.3498 8.89571 58.0076 9.14291C57.6648 9.39041 57.4939 9.72407 57.4939 10.1427H53.5054C53.5054 8.7525 54.044 7.63357 55.1218 6.78561C56.1992 5.93823 57.6145 5.51425 59.3673 5.51425H61.9659C63.7381 5.51425 65.1691 5.95695 66.2566 6.84295C67.3444 7.72865 67.8884 8.90492 67.8884 10.3715V20.0001H64.0812V18.2857C63.5976 18.8764 63.0031 19.3476 62.298 19.7003C61.5929 20.0524 60.8978 20.2283 60.2135 20.2283H58.3397C56.7686 20.2283 55.4995 19.8572 54.5326 19.1141Z" fill="#241F4A"/>
<path id="Fill 5" fill-rule="evenodd" clip-rule="evenodd" d="M71.2121 5.7428H75.0192V7.57124C75.402 7.0192 75.9509 6.56699 76.6664 6.21402C77.3812 5.86194 78.1316 5.68546 78.9175 5.68546H80.9722V9.05681H78.9175C77.8494 9.05681 76.9838 9.36195 76.3189 9.97133C75.654 10.5813 75.3218 11.3621 75.3218 12.3144V19.9998H71.2121V5.7428Z" fill="#241F4A"/>
<path id="Fill 7" fill-rule="evenodd" clip-rule="evenodd" d="M92.938 11.3999V11.1712C92.938 10.4287 92.7265 9.83325 92.3039 9.3855C91.8806 8.93835 91.3163 8.71402 90.6115 8.71402H88.1637C87.4384 8.71402 86.854 8.95261 86.4112 9.42829C85.9679 9.90486 85.7463 10.5333 85.7463 11.3141V11.3999H92.938ZM84.7946 19.5572C83.817 19.1098 83.0569 18.4811 82.513 17.6714C81.9694 16.8618 81.6976 15.9333 81.6976 14.8857V11.2C81.6976 10.0763 81.9694 9.08542 82.513 8.22854C83.0569 7.37136 83.817 6.70493 84.7946 6.22836C85.7715 5.75268 86.8945 5.5141 88.1637 5.5141H90.5813C92.5147 5.5141 94.066 6.0284 95.2346 7.05702C96.4026 8.08563 96.9871 9.45711 96.9871 11.1712V14.1999H85.8067V14.8857C85.8067 15.5141 86.0185 16.0192 86.4414 16.4001C86.8643 16.7813 87.4384 16.9714 88.1637 16.9714H90.521C91.2258 16.9714 91.7948 16.8241 92.2278 16.5287C92.6611 16.2334 92.8773 15.8477 92.8773 15.3715H96.9264C96.9264 16.324 96.6546 17.1714 96.111 17.9142C95.5674 18.6573 94.8063 19.2286 93.8297 19.6288C92.8522 20.0281 91.7298 20.2284 90.4603 20.2284H88.1637C86.8945 20.2284 85.7715 20.0044 84.7946 19.5572Z" fill="#241F4A"/>
<g id="Group 11">
<mask id="mask0_0_9" style="mask-type:alpha" maskUnits="userSpaceOnUse" x="99" y="0" width="16" height="20">
<path id="Clip 10" fill-rule="evenodd" clip-rule="evenodd" d="M99.7668 0H114.633V19.9998H99.7668V0Z" fill="white"/>
</mask>
<g mask="url(#mask0_0_9)">
<path id="Fill 9" fill-rule="evenodd" clip-rule="evenodd" d="M99.7668 -0.000152588H103.877V7.1713C104.319 6.67631 104.869 6.2761 105.523 5.97126C106.178 5.66671 106.807 5.5143 107.412 5.5143H109.286C110.897 5.5143 112.191 5.99057 113.168 6.94282C114.145 7.89537 114.633 9.15246 114.633 10.7141V19.9998H110.524V10.857C110.524 10.2669 110.358 9.79067 110.026 9.42848C109.693 9.06689 109.265 8.88536 108.741 8.88536H106.868C106.163 8.88536 105.533 9.12869 104.979 9.61418C104.425 10.1 104.058 10.7334 103.877 11.5142V19.9998H99.7668V-0.000152588Z" fill="#241F4A"/>
</g>
</g>
<path id="Fill 12" fill-rule="evenodd" clip-rule="evenodd" d="M126.447 16.8856C127.193 16.8856 127.787 16.6429 128.23 16.1571C128.673 15.6713 128.895 15.0385 128.895 14.2571V11.4856C128.895 10.7048 128.673 10.0713 128.23 9.58552C127.787 9.10004 127.203 8.857 126.478 8.857H123.879C123.154 8.857 122.57 9.10004 122.127 9.58552C121.684 10.0713 121.462 10.7048 121.462 11.4856V14.2571C121.462 15.0385 121.684 15.6713 122.127 16.1571C122.57 16.6429 123.144 16.8856 123.849 16.8856H126.447ZM120.419 19.5285C119.442 19.062 118.686 18.3997 118.153 17.5428C117.619 16.6857 117.353 15.6954 117.353 14.5711V11.2286C117.353 10.1049 117.625 9.10984 118.168 8.24286C118.713 7.37618 119.472 6.705 120.45 6.22842C121.427 5.75274 122.55 5.51416 123.819 5.51416H126.539C127.807 5.51416 128.93 5.75274 129.907 6.22842C130.885 6.705 131.645 7.37618 132.189 8.24286C132.733 9.10984 133.005 10.1049 133.005 11.2286V14.5711C133.005 15.6954 132.733 16.6857 132.189 17.5428C131.645 18.3997 130.885 19.062 129.907 19.5285C128.93 19.9955 127.797 20.2285 126.508 20.2285H123.789C122.519 20.2285 121.396 19.9955 120.419 19.5285Z" fill="#241F4A"/>
<g id="Group 16">
<mask id="mask1_0_9" style="mask-type:alpha" maskUnits="userSpaceOnUse" x="134" y="5" width="22" height="15">
<path id="Clip 15" fill-rule="evenodd" clip-rule="evenodd" d="M134.214 5.74268H156V20H134.214V5.74268Z" fill="white"/>
</mask>
<g mask="url(#mask1_0_9)">
<path id="Fill 14" fill-rule="evenodd" clip-rule="evenodd" d="M137.265 17.7714L134.214 5.74268H138.474L140.317 14.7999H140.378L143.671 6.08555H145.273C145.736 6.08555 146.108 6.18092 146.391 6.37137C146.673 6.56212 146.894 6.85686 147.056 7.25707L149.866 14.7999H149.926L151.74 5.74268H156L153.008 17.7714C152.646 19.2569 151.779 20 150.409 20H148.537L145.182 10.9713L141.707 20H139.864C138.514 20 137.648 19.2569 137.265 17.7714Z" fill="#241F4A"/>
</g>
</g>
<path id="Fill 17" fill-rule="evenodd" clip-rule="evenodd" d="M19.4191 18.6823L11.7515 22.7362C11.0866 23.0879 10.2765 23.0879 9.61159 22.7362L1.70636 18.5567C0.652764 17.9996 0.00012207 16.9475 0.00012207 15.8063V12.825L10.6699 18.4663L21.3629 12.825V15.5487C21.3629 16.8491 20.6195 18.0477 19.4191 18.6823Z" fill="#0A55FF"/>
<g id="Group 21">
<mask id="mask2_0_9" style="mask-type:alpha" maskUnits="userSpaceOnUse" x="0" y="5" width="22" height="11">
<path id="Clip 20" fill-rule="evenodd" clip-rule="evenodd" d="M0 5.41769H21.363V15.8946H0V5.41769Z" fill="white"/>
</mask>
<g mask="url(#mask2_0_9)">
<path id="Fill 19" fill-rule="evenodd" clip-rule="evenodd" d="M20.1366 10.8956L10.6813 15.8946L1.55943 11.0718C0.596335 10.5625 -6.10352e-05 9.60107 -6.10352e-05 8.5579V5.41769L10.6813 11.0652L21.363 5.41769V8.9186C21.363 9.73893 20.8939 10.4951 20.1366 10.8956Z" fill="#0A55FF"/>
</g>
</g>
<path id="Fill 22" fill-rule="evenodd" clip-rule="evenodd" d="M9.63984 0.392511L7.96283 1.28237L15.8329 5.63985L18.8702 4.01969L12.2664 0.408555C11.4551 -0.0347396 10.4568 -0.040979 9.63984 0.392511Z" fill="#0A55FF"/>
<path id="Fill 24" fill-rule="evenodd" clip-rule="evenodd" d="M5.69873 2.51654L2.70355 4.10551L10.5739 8.46329L13.6112 6.84312L5.69873 2.51654Z" fill="#0A55FF"/>
</g>
</svg>
